# xmcd
#
# Track frame offsets:
#	150
#	48249
#	95079
#	137573
#
# Disc length: 2215 seconds
#
# Revision: 0
# Processed by: cddbd v1.5.1PL2 Copyright (c) Steve Scherf et al.
# Submitted via: EasyCDDAExtractor 10.0.1.1
#
DISCID=2f08a504
DTITLE=Grateful Dead - Red Rocks August 30, 1978
DYEAR=1978
DGENRE=Blues
TTITLE0=If I Had The World To Give
TTITLE1=Iko Iko
TTITLE2=Around and Around
TTITLE3=U S Blues
EXTD=
EXTT0=
EXTT1=
EXTT2=
EXTT3=
PLAYORDER=
